<svg xmlns="http://www.w3.org/2000/svg" viewBox="0 0 1417.3 1417.3">
	<path fill="#FC5A5A" d="M1050.3,88L1020,189.9c175.6,105.8,293,298.4,293,518.3c0,334-270.8,604.8-604.8,604.8
		c-43.6,0-86.1-4.6-127-13.4c-9.8-2.1-19.5-4.4-29.1-7l-7,7l-75.5,75.5c8.9,3.2,17.9,6.2,27,9.1c66.8,20.9,137.9,32.2,211.6,32.2
		c391.1,0,708.2-317.1,708.2-708.2C1416.4,441.1,1268.6,208.6,1050.3,88z M103.4,708.2c0-334,270.8-604.8,604.8-604.8
		c42.9,0,84.7,4.5,125,12.9L918,31.6C851.7,11,781.2,0,708.2,0C317.1,0,0,317.1,0,708.2c0,253.6,133.3,476.1,333.7,601.2l24.9-83.9
		l5.8-19.6C206.7,1096.7,103.4,914.5,103.4,708.2z"/>
	<polygon fill="#FC5A5A" points="352.9,1417 595.2,709.4 371.5,709.4 1026.8,0.6 783.9,708.2 1011.2,708.2 	"/>
</svg>
